<svg width="40" height="40" viewBox="0 0 40 40" fill="none" xmlns="http://www.w3.org/2000/svg">
<path d="M20 0C14.3194 0 9.71429 4.60505 9.71429 10.2857C9.71429 11.2776 9.85468 12.2367 10.1167 13.1443C4.514 13.2345 0 17.8044 0 23.4286C0 29.1092 4.60507 33.7143 10.2857 33.7143C12.1253 33.7143 13.852 33.2314 15.3461 32.3855L13.7143 36.5714L13.6989 36.6636C13.5246 36.6039 13.3375 36.5714 13.1429 36.5714C12.1961 36.5714 11.4286 37.3389 11.4286 38.2857C11.4286 39.2325 12.1961 40 13.1429 40H20V0Z" fill="#3C3A41"/>
<path d="M20 0C25.6806 0 30.2857 4.60505 30.2857 10.2857C30.2857 11.2776 30.1453 12.2367 29.8833 13.1443C35.486 13.2345 40 17.8044 40 23.4286C40 29.1092 35.3949 33.7143 29.7143 33.7143C27.8747 33.7143 26.148 33.2314 24.6539 32.3855L26.2857 36.5714L26.3011 36.6636C26.4754 36.6039 26.6625 36.5714 26.8571 36.5714C27.8039 36.5714 28.5714 37.3389 28.5714 38.2857C28.5714 39.2325 27.8039 40 26.8571 40H20V0Z" fill="#17171A"/>
</svg>
