<svg width="41" height="47" viewBox="0 0 41 47" fill="none" xmlns="http://www.w3.org/2000/svg">
<path fill-rule="evenodd" clip-rule="evenodd" d="M20.3983 0C19.5176 -2.98023e-07 18.6369 0.383477 18.0363 1.15043L10.1597 11.2094L0.830675 20.9756C-0.276891 22.1351 -0.276892 23.9605 0.830674 25.12L10.1597 34.8863L18.0363 44.9452C18.6369 45.7122 19.5176 46.0956 20.3983 46.0956V0Z" fill="#FF5368"/>
<path fill-rule="evenodd" clip-rule="evenodd" d="M20.398 0C21.2787 -2.98023e-07 22.1594 0.383477 22.76 1.15043L30.6366 11.2094L39.9657 20.9756C41.0732 22.1351 41.0732 23.9605 39.9657 25.12L30.6366 34.8863L22.76 44.9452C22.1594 45.7122 21.2787 46.0956 20.398 46.0956V0Z" fill="#C5324F"/>
</svg>
