<svg width="13" height="13" viewBox="0 0 13 13" fill="none" xmlns="http://www.w3.org/2000/svg">
<path fill-rule="evenodd" clip-rule="evenodd" d="M6.22313 0C4.55034 0 4.34041 0.00731427 3.68341 0.037213C3.02769 0.0672399 2.58011 0.171051 2.18848 0.323368C1.78337 0.480689 1.43973 0.691134 1.09737 1.03362C0.754752 1.37598 0.544306 1.71962 0.386472 2.1246C0.23377 2.51637 0.129831 2.96408 0.100317 3.61954C0.0709316 4.27654 0.0632324 4.4866 0.0632324 6.15938C0.0632324 7.83217 0.070675 8.04146 0.100445 8.69846C0.130601 9.35418 0.234412 9.80176 0.3866 10.1934C0.544049 10.5985 0.754495 10.9421 1.09698 11.2845C1.43921 11.6271 1.78286 11.8381 2.18771 11.9954C2.5796 12.1477 3.02731 12.2515 3.6829 12.2816C4.3399 12.3115 4.5497 12.3188 6.22236 12.3188C7.89527 12.3188 8.10456 12.3115 8.76157 12.2816C9.41728 12.2515 9.86538 12.1477 10.2573 11.9954C10.6622 11.8381 11.0054 11.6271 11.3476 11.2845C11.6902 10.9421 11.9007 10.5985 12.0585 10.1935C12.2099 9.80176 12.3139 9.35405 12.3447 8.69859C12.3742 8.04159 12.3819 7.83217 12.3819 6.15938C12.3819 4.4866 12.3742 4.27667 12.3447 3.61966C12.3139 2.96395 12.2099 2.51637 12.0585 2.12473C11.9007 1.71962 11.6902 1.37598 11.3476 1.03362C11.005 0.691006 10.6624 0.48056 10.2569 0.323368C9.86422 0.171051 9.41639 0.0672399 8.76067 0.037213C8.10367 0.00731427 7.8945 0 6.2212 0H6.22313ZM6.01777 1.10987H6.01785L6.22314 1.10993C7.8677 1.10993 8.06261 1.11583 8.71204 1.14535C9.31258 1.17281 9.63852 1.27315 9.85564 1.35746C10.1431 1.4691 10.348 1.60255 10.5635 1.81813C10.779 2.03371 10.9125 2.23902 11.0244 2.52646C11.1087 2.74332 11.2092 3.06926 11.2365 3.6698C11.266 4.3191 11.2724 4.51414 11.2724 6.15793C11.2724 7.80172 11.266 7.99676 11.2365 8.64606C11.209 9.2466 11.1087 9.57254 11.0244 9.7894C10.9127 10.0768 10.779 10.2815 10.5635 10.497C10.3479 10.7125 10.1432 10.846 9.85564 10.9576C9.63878 11.0423 9.31258 11.1424 8.71204 11.1699C8.06274 11.1994 7.8677 11.2058 6.22314 11.2058C4.57846 11.2058 4.38354 11.1994 3.73424 11.1699C3.1337 11.1422 2.80776 11.0418 2.59052 10.9575C2.30308 10.8459 2.09776 10.7124 1.88219 10.4968C1.66661 10.2813 1.53315 10.0765 1.42126 9.78889C1.33695 9.57203 1.23648 9.24609 1.20915 8.64555C1.17963 7.99625 1.17373 7.8012 1.17373 6.15639C1.17373 4.51158 1.17963 4.31756 1.20915 3.66826C1.23661 3.06772 1.33695 2.74178 1.42126 2.52466C1.5329 2.23723 1.66661 2.03191 1.88219 1.81633C2.09776 1.60076 2.30308 1.4673 2.59052 1.35541C2.80763 1.27072 3.1337 1.17063 3.73424 1.14304C4.30244 1.11737 4.52264 1.10967 5.67059 1.10839V1.10993C5.77781 1.10976 5.89315 1.10981 6.01761 1.10987H6.01769H6.01777ZM8.77173 2.87145C8.77173 2.46326 9.1028 2.13258 9.51085 2.13258V2.13232C9.91891 2.13232 10.25 2.46339 10.25 2.87145C10.25 3.27951 9.91891 3.61058 9.51085 3.61058C9.1028 3.61058 8.77173 3.27951 8.77173 2.87145ZM6.22298 2.99602C4.47621 2.99609 3.06 4.41234 3.06 6.15912C3.06 7.90595 4.47628 9.32158 6.2231 9.32158C7.96993 9.32158 9.38569 7.90595 9.38569 6.15912C9.38569 4.4123 7.9698 2.99602 6.22298 2.99602ZM8.27624 6.15957C8.27624 5.02561 7.35695 4.10645 6.22311 4.10645C5.08914 4.10645 4.16998 5.02561 4.16998 6.15957C4.16998 7.29341 5.08914 8.2127 6.22311 8.2127C7.35695 8.2127 8.27624 7.29341 8.27624 6.15957Z" fill="white"/>
</svg>
