<svg width="16" height="12" viewBox="0 0 16 12" fill="none" xmlns="http://www.w3.org/2000/svg">
<path d="M7.66519 3.19219L7.69771 3.71122L7.15579 3.64767C5.18322 3.40404 3.45992 2.57782 1.99675 1.1902L1.28142 0.501686L1.09717 1.01013C0.706986 2.14353 0.956267 3.34048 1.76914 4.14552C2.20267 4.5904 2.10513 4.65396 1.35729 4.38914C1.09717 4.3044 0.869561 4.24085 0.847884 4.27263C0.772016 4.34677 1.03214 5.31069 1.23806 5.69202C1.51986 6.22165 2.09429 6.74068 2.72291 7.04787L3.25399 7.2915L2.62537 7.30209C2.01842 7.30209 1.99675 7.31268 2.06178 7.53512C2.27854 8.22364 3.13477 8.95452 4.08854 9.2723L4.76052 9.49474L4.17525 9.8337C3.30818 10.321 2.28938 10.5964 1.27058 10.6175C0.782854 10.6281 0.381836 10.6705 0.381836 10.7023C0.381836 10.8082 1.70411 11.4014 2.47363 11.6344C4.7822 12.3229 7.52429 12.0264 9.58358 10.8506C11.0468 10.0138 12.5099 8.35075 13.1927 6.74068C13.5612 5.88269 13.9297 4.315 13.9297 3.56293C13.9297 3.07567 13.9623 3.01212 14.5692 2.42953C14.9269 2.09056 15.2629 1.71983 15.3279 1.6139C15.4363 1.41264 15.4254 1.41264 14.8727 1.59272C13.9514 1.91049 13.8214 1.86812 14.2766 1.39146C14.6126 1.0525 15.0136 0.438131 15.0136 0.258058C15.0136 0.22628 14.851 0.279243 14.6668 0.374576C14.4717 0.480501 14.0381 0.639389 13.713 0.734722L13.1277 0.914795L12.5966 0.565241C12.304 0.374576 11.8921 0.162725 11.6754 0.0991699C11.1226 -0.0491255 10.2772 -0.0279404 9.77867 0.14154C8.42387 0.618204 7.56765 1.84694 7.66519 3.19219Z" fill="white"/>
</svg>
