<svg width="17" height="12" viewBox="0 0 17 12" fill="none" xmlns="http://www.w3.org/2000/svg">
<path d="M15.7275 1.80285C15.5428 1.09318 14.9985 0.534348 14.3073 0.344687C13.0547 0 8.0316 0 8.0316 0C8.0316 0 3.00847 0 1.75582 0.344687C1.06464 0.534348 0.52032 1.09318 0.335593 1.80285C0 3.08905 0 5.77271 0 5.77271C0 5.77271 0 8.45628 0.335593 9.74257C0.52032 10.4522 1.06464 11.0111 1.75582 11.2008C3.00847 11.5454 8.0316 11.5454 8.0316 11.5454C8.0316 11.5454 13.0547 11.5454 14.3073 11.2008C14.9985 11.0111 15.5428 10.4522 15.7275 9.74257C16.0632 8.45628 16.0632 5.77271 16.0632 5.77271C16.0632 5.77271 16.0632 3.08905 15.7275 1.80285Z" fill="white"/>
<path d="M6.5257 8.53342V3.51367L10.5415 6.02364L6.5257 8.53342Z" fill="black"/>
</svg>
